# xmcd
#
# Track frame offsets:
#	150
#	13898
#	25533
#	36711
#	55673
#	71642
#	95629
#	114576
#	132276
#	147530
#
# Disc length: 2270 seconds
#
# Revision: 1
# Processed by: cddbd v1.5.2PL0 Copyright (c) Steve Scherf et al.
# Submitted via: audiograbber 1.81.03
#
DISCID=9208dc0a
DTITLE=Ken`Losell]p[The`Links - There's A Reason
DYEAR=2006
DGENRE=Blues
TTITLE0=Drink My Blues Away
TTITLE1=Outside Woman Blues
TTITLE2=Sooner Or Later
TTITLE3=There's A Reason
TTITLE4=Lets Have A Party
TTITLE5=World Turns Blue
TTITLE6=Kiss And Makeup
TTITLE7=Muddy Water Blues
TTITLE8=Brand New Walk
TTITLE9=Walk With Me Brother
EXTD=
EXTT0=
EXTT1=
EXTT2=
EXTT3=
EXTT4=
EXTT5=
EXTT6=
EXTT7=
EXTT8=
EXTT9=
PLAYORDER=
